<?xml version="1.0" encoding="UTF-8"?>
<!DOCTYPE svg PUBLIC "-//W3C//DTD SVG 1.1//EN" "http://www.w3.org/Graphics/SVG/1.1/DTD/svg11.dtd">
<svg version="1.1" xmlns="http://www.w3.org/2000/svg" xmlns:xlink="http://www.w3.org/1999/xlink" width="512" height="512"  xml:space="preserve" id="icon">
    <!-- Generated by PaintCode - http://www.paintcodeapp.com -->
    <defs>
        <linearGradient id="icon-gradient-rectangle2" x1="34.39" y1="-16.82" x2="477.61" y2="426.39" gradientUnits="userSpaceOnUse" >
            <stop offset="0" stop-color="rgb(193, 177, 240)" stop-opacity="1" />
            <stop offset="1" stop-color="rgb(111, 20, 232)" stop-opacity="1" />
        </linearGradient>
    </defs>
    <path id="icon-rectangle2" stroke="none" fill="url(#icon-gradient-rectangle2)" d="M 0,392 L 512,392 512,30 C 512,13.43 498.57,0 482,-0 L 30,-0 C 13.43,-0 0,13.43 0,30 Z M 0,392" />
    <g id="icon-group">
        <rect id="icon-rectangle" stroke="rgb(255, 255, 255)" stroke-width="15" stroke-miterlimit="10" fill="none" x="156" y="54" width="200" height="300" rx="30" />
        <path id="icon-bezier" stroke="rgb(255, 255, 255)" stroke-width="15" stroke-miterlimit="10" fill="none" d="M 156,300 L 356,300" />
        <path id="icon-bezier2" stroke="rgb(255, 255, 255)" stroke-width="15" stroke-linecap="round" stroke-miterlimit="10" fill="none" d="M 241,330 L 271,330" />
    </g>
    <g id="icon-group2" transform="translate(206, 120)" >
        <rect id="icon-rectangle4" stroke="rgb(255, 255, 255)" stroke-width="10" stroke-miterlimit="10" fill="none" x="20" y="20" width="60" height="60" rx="10" />
        <path id="icon-bezier3" stroke="rgb(255, 255, 255)" stroke-width="10" stroke-linecap="round" stroke-miterlimit="10" fill="none" d="M 5,31 L 20,31" />
        <path id="icon-bezier4" stroke="rgb(255, 255, 255)" stroke-width="10" stroke-linecap="round" stroke-miterlimit="10" fill="none" d="M 5,50 L 20,50" />
        <path id="icon-bezier5" stroke="rgb(255, 255, 255)" stroke-width="10" stroke-linecap="round" stroke-miterlimit="10" fill="none" d="M 5,69 L 20,69" />
        <path id="icon-bezier6" stroke="rgb(255, 255, 255)" stroke-width="10" stroke-linecap="round" stroke-miterlimit="10" fill="none" d="M 80,31 L 95,31" />
        <path id="icon-bezier7" stroke="rgb(255, 255, 255)" stroke-width="10" stroke-linecap="round" stroke-miterlimit="10" fill="none" d="M 80,50 L 95,50" />
        <path id="icon-bezier8" stroke="rgb(255, 255, 255)" stroke-width="10" stroke-linecap="round" stroke-miterlimit="10" fill="none" d="M 80,69 L 95,69" />
        <path id="icon-bezier9" stroke="rgb(255, 255, 255)" stroke-width="10" stroke-linecap="round" stroke-miterlimit="10" fill="none" d="M 31,20 L 31,5" />
        <path id="icon-bezier10" stroke="rgb(255, 255, 255)" stroke-width="10" stroke-linecap="round" stroke-miterlimit="10" fill="none" d="M 50,20 L 50,5" />
        <path id="icon-bezier11" stroke="rgb(255, 255, 255)" stroke-width="10" stroke-linecap="round" stroke-miterlimit="10" fill="none" d="M 69,20 L 69,5" />
        <path id="icon-bezier12" stroke="rgb(255, 255, 255)" stroke-width="10" stroke-linecap="round" stroke-miterlimit="10" fill="none" d="M 31,95 L 31,80" />
        <path id="icon-bezier13" stroke="rgb(255, 255, 255)" stroke-width="10" stroke-linecap="round" stroke-miterlimit="10" fill="none" d="M 50,95 L 50,80" />
        <path id="icon-bezier14" stroke="rgb(255, 255, 255)" stroke-width="10" stroke-linecap="round" stroke-miterlimit="10" fill="none" d="M 69,95 L 69,80" />
    </g>
    <path id="icon-rectangle3" stroke="none" fill="rgb(255, 165, 74)" d="M 0,482 C -0,498.57 13.43,512 30,512 L 482,512 C 498.57,512 512,498.57 512,482 L 512,392 0,392 Z M 0,482" />
    
    <text  fill="rgb(0, 0, 0)" font-family="HelveticaNeue, 'Helvetica Neue', Helvetica, Arial, sans-serif" font-size="40" x="40.02" y="392" text-anchor="middle"><tspan x="512" y="465">MAUI Native Embedded</tspan></text>
</svg>
