<?xml version="1.0" encoding="UTF-8"?>
<!DOCTYPE svg PUBLIC "-//W3C//DTD SVG 1.1//EN" "http://www.w3.org/Graphics/SVG/1.1/DTD/svg11.dtd">
<svg version="1.1" xmlns="http://www.w3.org/2000/svg" xmlns:xlink="http://www.w3.org/1999/xlink" width="512" height="512"  xml:space="preserve" id="splash">
    <!-- Generated by PaintCode - http://www.paintcodeapp.com -->
    <g id="splash-group">
        <path id="splash-frameBottomRect" stroke="none" fill="rgb(255, 255, 255)" fill-opacity="0.2" d="M 128,322 L 128,327.45 C 128,357.58 151.3,382 180.03,382 L 331.97,382 C 360.7,382 384,357.58 384,327.45 L 384,322 128,322 Z M 128,322" />
        <path id="splash-frameTopRect" stroke="rgb(255, 255, 255)" stroke-opacity="0.2" stroke-width="10" stroke-miterlimit="10" fill="none" d="M 379,322 L 379,179.69 C 379,152.8 356.61,131 329,131 L 183,131 C 155.39,131 133,152.8 133,179.69 L 133,322" />
        <g id="splash-group2" transform="translate(201, 146) scale(0.5, 0.5)" >
            <g id="splash-mobileGroup">
                <rect id="splash-rectangle" stroke="rgb(255, 255, 255)" stroke-width="15" stroke-miterlimit="10" fill="none" x="10" y="10" width="200" height="300" rx="30" />
                <path id="splash-bezier" stroke="rgb(255, 255, 255)" stroke-width="15" stroke-miterlimit="10" fill="none" d="M 10,256 L 210,256" />
                <path id="splash-bezier2" stroke="rgb(255, 255, 255)" stroke-width="15" stroke-linecap="round" stroke-miterlimit="10" fill="none" d="M 95,286 L 125,286" />
            </g>
            <g id="splash-embeddedGroup">
                <rect id="splash-rectangle2" stroke="rgb(255, 255, 255)" stroke-width="10" stroke-miterlimit="10" fill="none" x="80" y="110" width="60" height="60" rx="10" />
                <path id="splash-bezier3" stroke="rgb(255, 255, 255)" stroke-width="10" stroke-linecap="round" stroke-miterlimit="10" fill="none" d="M 65,121 L 80,121" />
                <path id="splash-bezier4" stroke="rgb(255, 255, 255)" stroke-width="10" stroke-linecap="round" stroke-miterlimit="10" fill="none" d="M 65,140 L 80,140" />
                <path id="splash-bezier5" stroke="rgb(255, 255, 255)" stroke-width="10" stroke-linecap="round" stroke-miterlimit="10" fill="none" d="M 65,159 L 80,159" />
                <path id="splash-bezier6" stroke="rgb(255, 255, 255)" stroke-width="10" stroke-linecap="round" stroke-miterlimit="10" fill="none" d="M 140,121 L 155,121" />
                <path id="splash-bezier7" stroke="rgb(255, 255, 255)" stroke-width="10" stroke-linecap="round" stroke-miterlimit="10" fill="none" d="M 140,140 L 155,140" />
                <path id="splash-bezier8" stroke="rgb(255, 255, 255)" stroke-width="10" stroke-linecap="round" stroke-miterlimit="10" fill="none" d="M 140,159 L 155,159" />
                <path id="splash-bezier9" stroke="rgb(255, 255, 255)" stroke-width="10" stroke-linecap="round" stroke-miterlimit="10" fill="none" d="M 91,110 L 91,95" />
                <path id="splash-bezier10" stroke="rgb(255, 255, 255)" stroke-width="10" stroke-linecap="round" stroke-miterlimit="10" fill="none" d="M 110,110 L 110,95" />
                <path id="splash-bezier11" stroke="rgb(255, 255, 255)" stroke-width="10" stroke-linecap="round" stroke-miterlimit="10" fill="none" d="M 129,110 L 129,95" />
                <path id="splash-bezier12" stroke="rgb(255, 255, 255)" stroke-width="10" stroke-linecap="round" stroke-miterlimit="10" fill="none" d="M 91,185 L 91,170" />
                <path id="splash-bezier13" stroke="rgb(255, 255, 255)" stroke-width="10" stroke-linecap="round" stroke-miterlimit="10" fill="none" d="M 110,185 L 110,170" />
                <path id="splash-bezier14" stroke="rgb(255, 255, 255)" stroke-width="10" stroke-linecap="round" stroke-miterlimit="10" fill="none" d="M 129,185 L 129,170" />
            </g>
        </g>
    </g>
</svg>
