<?xml version="1.0" encoding="UTF-8"?>
<!DOCTYPE svg PUBLIC "-//W3C//DTD SVG 1.1//EN" "http://www.w3.org/Graphics/SVG/1.1/DTD/svg11.dtd">
<svg version="1.1" xmlns="http://www.w3.org/2000/svg" xmlns:xlink="http://www.w3.org/1999/xlink" width="256" height="256"  xml:space="preserve" id="splash">
    <!-- Generated by PaintCode - http://www.paintcodeapp.com -->
    <path id="splash-frameBottomRect" stroke="none" fill="rgb(255, 255, 255)" fill-opacity="0.2" d="M 0,196 L 0,201.45 C -0,231.58 23.3,256 52.03,256 L 203.97,256 C 232.7,256 256,231.58 256,201.45 L 256,196 0,196 Z M 0,196" />
    <path id="splash-frameTopRect" stroke="rgb(255, 255, 255)" stroke-opacity="0.2" stroke-width="10" stroke-miterlimit="10" fill="none" d="M 251,196 L 251,53.69 C 251,26.8 228.61,5 201,5 L 55,5 C 27.39,5 5,26.8 5,53.69 L 5,196" />
    <g id="splash-group" transform="translate(73, 20) scale(0.5, 0.5)" >
        <g id="splash-mobileGroup">
            <rect id="splash-rectangle" stroke="rgb(255, 255, 255)" stroke-width="15" stroke-miterlimit="10" fill="none" x="10" y="10" width="200" height="300" rx="30" />
            <path id="splash-bezier" stroke="rgb(255, 255, 255)" stroke-width="15" stroke-miterlimit="10" fill="none" d="M 10,256 L 210,256" />
            <path id="splash-bezier2" stroke="rgb(255, 255, 255)" stroke-width="15" stroke-linecap="round" stroke-miterlimit="10" fill="none" d="M 95,286 L 125,286" />
        </g>
        <g id="splash-embeddedGroup">
            <rect id="splash-rectangle2" stroke="rgb(255, 255, 255)" stroke-width="10" stroke-miterlimit="10" fill="none" x="80" y="110" width="60" height="60" rx="10" />
            <path id="splash-bezier3" stroke="rgb(255, 255, 255)" stroke-width="10" stroke-linecap="round" stroke-miterlimit="10" fill="none" d="M 65,121 L 80,121" />
            <path id="splash-bezier4" stroke="rgb(255, 255, 255)" stroke-width="10" stroke-linecap="round" stroke-miterlimit="10" fill="none" d="M 65,140 L 80,140" />
            <path id="splash-bezier5" stroke="rgb(255, 255, 255)" stroke-width="10" stroke-linecap="round" stroke-miterlimit="10" fill="none" d="M 65,159 L 80,159" />
            <path id="splash-bezier6" stroke="rgb(255, 255, 255)" stroke-width="10" stroke-linecap="round" stroke-miterlimit="10" fill="none" d="M 140,121 L 155,121" />
            <path id="splash-bezier7" stroke="rgb(255, 255, 255)" stroke-width="10" stroke-linecap="round" stroke-miterlimit="10" fill="none" d="M 140,140 L 155,140" />
            <path id="splash-bezier8" stroke="rgb(255, 255, 255)" stroke-width="10" stroke-linecap="round" stroke-miterlimit="10" fill="none" d="M 140,159 L 155,159" />
            <path id="splash-bezier9" stroke="rgb(255, 255, 255)" stroke-width="10" stroke-linecap="round" stroke-miterlimit="10" fill="none" d="M 91,110 L 91,95" />
            <path id="splash-bezier10" stroke="rgb(255, 255, 255)" stroke-width="10" stroke-linecap="round" stroke-miterlimit="10" fill="none" d="M 110,110 L 110,95" />
            <path id="splash-bezier11" stroke="rgb(255, 255, 255)" stroke-width="10" stroke-linecap="round" stroke-miterlimit="10" fill="none" d="M 129,110 L 129,95" />
            <path id="splash-bezier12" stroke="rgb(255, 255, 255)" stroke-width="10" stroke-linecap="round" stroke-miterlimit="10" fill="none" d="M 91,185 L 91,170" />
            <path id="splash-bezier13" stroke="rgb(255, 255, 255)" stroke-width="10" stroke-linecap="round" stroke-miterlimit="10" fill="none" d="M 110,185 L 110,170" />
            <path id="splash-bezier14" stroke="rgb(255, 255, 255)" stroke-width="10" stroke-linecap="round" stroke-miterlimit="10" fill="none" d="M 129,185 L 129,170" />
        </g>
    </g>
</svg>
